# xmcd
# Copyright (C) 1995-1998 Ti Kan
#
# Track frame offsets:
#       150
#       10325
#       21548
#
# Disc length: 432 seconds
#
# Revision: 2
# Processed by: cddbd v1.5.2PL0 Copyright (c) Steve Scherf et al.
# Submitted via: CD-Import v1.0
#
DISCID=1e01ae03
DTITLE=Sonny Curtis - Lied Der Woche 13-17
DYEAR=68
DGENRE=
TTITLE0=I Fought The Law
TTITLE1=I Fought The Law
TTITLE2=I Fought The Law
EXTD=
EXTT0=
EXTT1=
EXTT2=
PLAYORDER=
